<svg width="43" height="28" viewBox="0 0 43 28" fill="none" xmlns="http://www.w3.org/2000/svg">
<path d="M10.363 28C7.41898 28 4.94599 27.0083 2.94404 25.025C0.981347 23.0028 0 20.1056 0 16.3333C0 14.1167 0.372911 12.0556 1.11873 10.15C1.90381 8.20555 2.96367 6.51389 4.2983 5.075C5.63293 3.59722 7.1442 2.48889 8.83212 1.75C11.4229 0.583334 15.2305 0 20.255 0V1.51667C15.1912 1.51667 11.521 2.33333 9.24429 3.96667C7.00681 5.6 5.88808 7.89444 5.88808 10.85C6.20211 10.4222 6.90868 10.0528 8.00779 9.74166C9.14615 9.39166 10.3238 9.21667 11.5406 9.21667C13.2678 9.21667 14.7791 9.625 16.0745 10.4417C17.3698 11.2583 18.3904 12.3667 19.1363 13.7667C19.8821 15.1278 20.255 16.6444 20.255 18.3167C20.255 21.1167 19.3522 23.4306 17.5465 25.2583C15.7801 27.0861 13.3856 28 10.363 28Z" fill="white"/>
<path d="M33.108 28C30.164 28 27.691 27.0083 25.689 25.025C23.7264 23.0028 22.745 20.1056 22.745 16.3333C22.745 14.1167 23.1179 12.0556 23.8637 10.15C24.6488 8.20555 25.7087 6.51389 27.0433 5.075C28.3779 3.59722 29.8892 2.48889 31.5771 1.75C34.1679 0.583334 37.9755 0 43 0V1.51667C37.9362 1.51667 34.266 2.33333 31.9893 3.96667C29.7518 5.6 28.6331 7.89444 28.6331 10.85C28.9471 10.4222 29.6537 10.0528 30.7528 9.74166C31.8912 9.39166 33.0688 9.21667 34.2856 9.21667C36.0128 9.21667 37.5241 9.625 38.8195 10.4417C40.1148 11.2583 41.1354 12.3667 41.8813 13.7667C42.6271 15.1278 43 16.6444 43 18.3167C43 21.1167 42.0972 23.4306 40.2915 25.2583C38.5251 27.0861 36.1306 28 33.108 28Z" fill="white"/>
</svg>
