<svg width="185" height="58" viewBox="0 0 185 58" fill="none" xmlns="http://www.w3.org/2000/svg">
<path fill-rule="evenodd" clip-rule="evenodd" d="M170.396 18.0051C170.396 18.0051 167.647 16.2535 166.055 13.1882C164.969 11.0717 164.028 7.05762 165.62 4.13829C167.285 0.781056 170.469 0.343155 173.363 1.29194C173.435 1.32843 173.49 1.34668 173.544 1.36492C173.598 1.38316 173.652 1.40143 173.725 1.43791C174.557 1.88576 175.124 2.39804 175.494 2.91708C175.959 2.72758 176.522 2.59111 177.198 2.53265H177.56C180.744 2.7516 183.638 4.43022 184 8.15237C184.289 11.2907 181.902 14.6479 180.02 16.2535C177.27 18.516 173.942 19.0999 173.942 19.0999L173.885 19.1803C173.564 19.6349 173.412 19.8495 173.001 20.1946C172.635 20.5027 172.474 20.4987 172.129 20.4899C172.065 20.4883 171.995 20.4866 171.916 20.4866C171.74 20.4866 171.492 20.2582 171.274 19.8942C171.118 19.8134 170.999 19.6892 170.83 19.3918C170.615 19.0109 170.56 18.7517 170.486 18.4024C170.46 18.2833 170.433 18.1536 170.396 18.0051ZM171.265 2.38669C169.094 2.24072 167.864 4.35724 167.285 6.25481C166.055 10.2689 168.949 15.1588 171.047 16.2535C171.062 16.1964 171.129 15.8061 171.232 15.2033C171.656 12.728 172.695 6.67012 173.218 5.37901V5.30602C173.218 5.30602 173.435 4.94111 173.435 4.72216C173.508 4.13829 173.363 2.97056 171.265 2.38669ZM174.014 16.9834C174.087 16.6914 176.113 7.86044 176.113 6.10884V6.03585C176.113 6.03585 176.113 5.59795 176.185 5.379C176.33 4.79514 176.909 3.77337 179.152 4.0653C181.323 4.79514 181.684 7.20359 181.54 9.17414C181.106 13.4802 176.402 16.9104 174.014 16.9834Z" fill="#FF3399"/>
<path fill-rule="evenodd" clip-rule="evenodd" d="M55.0082 29.0978C55.5878 24.6525 57.2208 12.1281 57.7307 9.68503C58.2719 7.1605 57.4217 7.05989 55.8897 6.87859C55.783 6.86596 55.673 6.85294 55.5599 6.83868C53.968 6.83868 53.5338 8.37133 53.2444 9.68503C53.0273 10.4879 50.7117 19.9027 50.567 20.6325C50.4947 21.2894 47.2384 33.7695 45.8636 37.2727C45.7189 37.6377 45.357 38.0756 45.2123 38.0756C44.9952 38.0756 44.7782 37.6377 44.8505 36.4699C44.8505 36.4699 46.153 24.3547 46.8043 20.4136C46.8387 20.136 46.8935 19.7553 46.9571 19.3137L46.9573 19.3126C47.1613 17.8965 47.4555 15.854 47.4555 14.5749C47.4555 13.2002 46.2885 13.163 45.4079 13.1349C45.26 13.1302 45.1201 13.1257 44.9952 13.1153C43.9848 13.0473 43.6015 13.9913 43.2615 14.8286C43.2362 14.8907 43.2112 14.9523 43.1862 15.0128C43.1862 15.0128 42.6073 20.8515 41.6667 28.1498C40.726 35.4482 40.8707 43.1114 41.0878 44.3521C41.4496 46.0308 42.6073 46.7606 43.6928 46.7606C44.344 46.7606 44.9952 46.4686 45.4294 45.8848C45.9359 45.1549 48.1791 34.4994 48.4686 33.1127C49.555 28.5104 50.3967 25.1832 51.3612 21.3711L51.3616 21.3692C51.6818 20.1038 52.0154 18.785 52.376 17.3483C52.376 17.3483 51.1459 24.9386 50.4223 32.8208C49.6987 41.3598 50.4223 48.2202 53.0996 48.5852H53.3167C55.0534 48.5852 56.2111 46.4687 57.0795 44.5711C57.5979 43.3759 58.3627 40.8617 58.9181 38.6721C59.2695 40.0538 60.1822 41.0512 61.204 41.1409H61.3487C63.414 41.1409 65.6416 36.719 66.8144 34.3907C66.9977 34.027 67.1552 33.7143 67.2823 33.4776C67.6549 32.7261 68.1809 31.5446 68.717 30.3404C69.7426 28.0368 70.8053 25.6499 70.9003 26.0333C71.3345 27.566 71.4792 31.945 70.828 35.3022C70.828 35.3022 65.4009 41.4328 62.5065 44.6441C59.7568 47.6364 57.3689 50.7747 57.2242 53.84C57.0795 55.4456 58.4543 57.854 61.5658 58C68.223 58 72.2752 47.3444 73.5053 41.9437C73.8794 40.1411 74.0386 38.9405 74.2024 37.7056C74.3237 36.7908 74.4476 35.8565 74.6631 34.6453C74.6631 34.6453 78.3535 31.1421 77.847 31.0692C77.3404 30.9962 74.9525 32.5288 74.9525 32.5288C74.9525 32.5288 74.8078 31.653 74.6631 30.1934C74.5184 28.7337 73.5777 24.7926 72.9988 23.7708C72.7094 23.187 72.2028 23.041 71.6963 23.041C71.4169 23.041 71.1074 23.1015 70.7873 23.164C70.6101 23.1987 70.4296 23.2339 70.2491 23.2599C69.5085 23.3667 69.0386 24.4876 68.3587 26.1095C68.1086 26.706 67.8302 27.3703 67.4994 28.0768C64.8221 33.7695 62.3618 36.6889 61.8553 36.5429C60.9503 36.4212 63.3148 30.6177 64.4615 27.8029C64.6902 27.2415 64.8705 26.799 64.9668 26.5442C65.4844 25.1737 64.8449 25.1454 63.8759 25.1026C63.7613 25.0975 63.642 25.0922 63.5196 25.0845C62.7077 25.0364 62.5892 25.4332 62.4569 25.8766C62.3888 26.105 62.3169 26.3457 62.1447 26.5442C62.1447 26.5442 60.3021 31.655 59.3393 34.7271C59.1327 34.7833 59.0752 34.9978 59.0098 35.2419C58.9653 35.4078 58.9171 35.5873 58.8161 35.7401C58.8161 35.7401 56.79 44.4981 55.1257 44.4981C55.1257 44.4981 55.0534 44.4251 54.981 44.4251C53.8232 43.9142 54.5469 32.5288 54.8363 30.4123C54.8707 30.1517 54.9299 29.6981 55.0082 29.0978ZM60.9869 53.84C61.1317 53.9129 61.204 53.9129 61.3487 53.9129C62.2171 53.9129 63.809 52.4533 65.1115 50.3368C66.5587 47.9283 67.7888 45.3009 69.7426 39.6082C69.7426 39.6082 65.7627 43.4763 63.0854 47.0525C60.4804 50.5557 60.191 53.3291 60.9869 53.84Z" fill="#FF3399"/>
<path d="M36.2371 37.9838C36.2134 37.8295 36.1913 37.686 36.1673 37.5647C35.9609 36.3681 36.2326 32.8355 36.4318 30.2443C36.5121 29.2003 36.5806 28.3089 36.6014 27.7849C36.6637 26.1519 35.9222 26.0864 35.0224 26.0068C34.8767 25.9939 34.7267 25.9807 34.5753 25.9603C33.8801 25.8668 33.8677 26.4919 33.8535 27.2027C33.8456 27.6017 33.8371 28.0277 33.707 28.3688C33.707 28.3688 31.9703 35.7401 32.4045 38.5134C32.7663 40.8489 33.9241 42.1626 35.2989 42.1626C35.516 42.1626 35.8055 42.0896 36.0225 42.0166C37.6145 41.4328 38.5552 39.0243 37.9763 39.0243C37.7075 39.0243 37.6883 39.1345 37.6652 39.2671C37.6386 39.4201 37.6067 39.603 37.1803 39.6812C36.5167 39.8029 36.356 38.7576 36.2371 37.9838Z" fill="#FF3399"/>
<path d="M34.2859 19.4648H34.0688C32.6939 19.4648 34.3582 22.2382 34.72 22.5301C35.1542 22.895 35.516 23.041 35.8055 23.041C36.4567 23.041 36.9632 22.4571 37.2527 21.6543C37.7592 20.4136 35.0818 19.6108 34.2859 19.4648Z" fill="#FF3399"/>
<path d="M126.616 37.9839C126.592 37.8295 126.57 37.686 126.546 37.5647C126.339 36.3681 126.611 32.8354 126.81 30.2441C126.891 29.2002 126.959 28.3088 126.98 27.7849C127.042 26.1519 126.301 26.0864 125.401 26.0068C125.255 25.9939 125.105 25.9807 124.954 25.9603C124.259 25.8668 124.246 26.4919 124.232 27.2027C124.224 27.6017 124.215 28.0277 124.085 28.3688C124.085 28.3688 122.349 35.7401 122.783 38.5134C123.145 40.8489 124.302 42.1626 125.677 42.1626C125.894 42.1626 126.184 42.0896 126.401 42.0166C127.993 41.4328 128.934 39.0243 128.355 39.0243C128.086 39.0243 128.067 39.1345 128.044 39.2671C128.017 39.4201 127.985 39.603 127.559 39.6812C126.895 39.8029 126.734 38.7577 126.616 37.9839Z" fill="#FF3399"/>
<path d="M124.664 19.4648H124.52C123.072 19.4648 124.737 22.2382 125.098 22.5301C125.533 22.895 125.894 23.041 126.184 23.041C126.835 23.041 127.342 22.4571 127.631 21.6543C128.138 20.4136 125.46 19.6108 124.664 19.4648Z" fill="#FF3399"/>
<path fill-rule="evenodd" clip-rule="evenodd" d="M148.181 9.68503C147.671 12.1283 146.038 24.6544 145.459 29.0985C145.381 29.6989 145.322 30.1517 145.287 30.4123C144.998 32.5288 144.274 43.9142 145.432 44.4251C145.504 44.4251 145.577 44.4981 145.577 44.4981C147.241 44.4981 149.267 35.7401 149.267 35.7401C149.368 35.5873 149.416 35.4078 149.461 35.2419C149.512 35.0494 149.559 34.8754 149.678 34.7828C150.628 31.7271 152.523 26.4712 152.523 26.4712C152.695 26.2727 152.767 26.032 152.835 25.8036C152.968 25.3603 153.086 24.9634 153.898 25.0115C154.02 25.0192 154.14 25.0245 154.254 25.0296C155.223 25.0724 155.863 25.1007 155.345 26.4712C155.249 26.726 155.069 27.1685 154.84 27.7298C153.693 30.5446 151.329 36.3482 152.234 36.4699C152.74 36.6159 155.2 33.6965 157.878 28.0038C158.209 27.2973 158.487 26.6331 158.737 26.0366C159.417 24.4147 159.887 23.2937 160.628 23.1869C160.808 23.1609 160.989 23.1257 161.166 23.091C161.486 23.0285 161.795 22.968 162.075 22.968C162.581 22.968 163.088 23.114 163.377 23.6978C163.956 24.7196 164.897 28.6607 165.042 30.1204C165.186 31.58 165.331 32.4558 165.331 32.4558C165.331 32.4558 167.719 30.9232 168.225 30.9962C168.732 31.1421 165.042 34.5723 165.042 34.5723C164.826 35.7834 164.702 36.7171 164.581 37.6318C164.417 38.8667 164.258 40.0681 163.884 41.8707C162.654 47.2714 158.601 57.927 151.944 57.927C148.833 57.7811 147.458 55.3726 147.603 53.767C147.747 50.7017 150.135 47.5634 152.885 44.5711C155.924 41.2868 161.351 35.1562 161.351 35.1562C162.002 31.799 161.858 27.42 161.423 25.8873C161.226 25.5885 160.051 28.2122 158.98 30.6048C158.482 31.7185 158.005 32.7821 157.661 33.4776C157.602 33.5965 157.535 33.7342 157.46 33.8877L157.459 33.8893C156.429 35.9976 153.952 41.0679 151.727 41.0679H151.582C150.604 40.982 149.725 40.0629 149.344 38.771C148.791 40.937 148.041 43.3938 147.53 44.5711C146.662 46.4687 145.504 48.5852 143.768 48.5852H143.478C140.801 48.2202 140.077 41.3598 140.801 32.8208C141.524 24.9386 142.754 17.3483 142.754 17.3483C142.394 18.7858 142.06 20.1054 141.739 21.3715C140.775 25.1835 139.933 28.5106 138.847 33.1127C138.558 34.4994 136.314 45.1549 135.808 45.8848C135.374 46.4686 134.722 46.7606 134.071 46.7606C132.986 46.7606 131.828 46.0308 131.466 44.3521C131.249 43.1114 131.104 35.4482 132.045 28.1498C132.986 20.8515 133.565 15.0128 133.565 15.0128C133.589 14.9544 133.613 14.8949 133.637 14.8349L133.639 14.8308L133.64 14.8286C133.98 13.9913 134.363 13.0473 135.374 13.1153C135.499 13.1257 135.638 13.1302 135.786 13.1349C136.667 13.163 137.834 13.2002 137.834 14.5749C137.834 15.8545 137.54 17.8974 137.336 19.3136L137.335 19.3153C137.272 19.7562 137.217 20.1363 137.183 20.4136C136.531 24.3547 135.229 36.4699 135.229 36.4699C135.157 37.6377 135.374 38.0756 135.591 38.0756C135.735 38.0756 136.097 37.6377 136.242 37.2727C137.617 33.7695 140.873 21.2894 140.945 20.6325C141.09 19.9027 143.406 10.4879 143.623 9.68503C143.912 8.37133 144.346 6.83868 145.938 6.83868C146.056 6.85349 146.17 6.86695 146.281 6.88003C147.814 7.06044 148.721 7.16721 148.181 9.68503ZM151.727 53.9129C151.582 53.9129 151.51 53.9129 151.365 53.84C150.569 53.3291 150.859 50.5557 153.464 47.0525C156.141 43.4763 160.121 39.6082 160.121 39.6082C158.167 45.3009 156.937 47.9283 155.49 50.3367C154.187 52.4533 152.595 53.9129 151.727 53.9129Z" fill="#FF3399"/>
<path fill-rule="evenodd" clip-rule="evenodd" d="M119.888 24.2817C118.514 15.8156 111.712 12.4584 104.403 12.4584H103.535C97.7461 13.3342 95.7924 16.4725 95.4306 18.8809C95.3944 18.8809 95.3763 18.8992 95.3582 18.9174C95.3402 18.9356 95.3221 18.9539 95.2859 18.9539C95.2859 18.9539 95.0688 22.968 94.8517 24.3547C94.8099 24.6217 94.6581 25.5329 94.4381 26.8533C93.5157 32.3891 91.395 45.1165 91.1613 47.7093C90.9443 50.9206 92.9704 53.9129 94.0558 53.8399C94.1722 53.8326 94.2806 53.8267 94.3824 53.8212C95.2916 53.7721 95.6702 53.7516 96.516 52.9641C97.4659 52.143 97.7796 51.5785 98.3518 50.5488L98.4698 50.3367C98.4698 50.3367 105.923 48.5122 111.856 42.9654C116.053 39.3162 120.974 31.2881 119.888 24.2817ZM98.3974 45.8118C98.4089 45.7074 98.5027 45.1033 98.6514 44.1453C99.4383 39.0753 101.764 24.0931 101.581 20.7785V20.6325C101.581 20.6201 101.579 20.5827 101.576 20.5268C101.561 20.2524 101.521 19.5364 101.581 19.1728C101.798 17.8591 102.956 15.5237 108.166 15.7426C113.231 17.0563 114.389 22.5301 114.317 27.055C114.172 36.7618 103.897 45.3009 98.3974 45.8118Z" fill="#FF3399"/>
<path fill-rule="evenodd" clip-rule="evenodd" d="M14.1696 12.4584C21.478 12.4584 28.2799 15.8156 29.6548 24.2817C30.8126 31.2881 25.8197 39.3162 21.6951 42.9654C15.7616 48.5122 8.30842 50.3367 8.30842 50.3367C8.2678 50.4096 8.22859 50.4801 8.19052 50.5486C7.61825 51.5784 7.30454 52.143 6.35468 52.9641C5.50887 53.7516 5.13107 53.772 4.22187 53.8212C4.11988 53.8267 4.0112 53.8326 3.89442 53.8399C2.80901 53.9129 0.782912 50.9206 0.999994 47.7093C1.14296 45.5945 2.60409 36.7371 3.62648 30.5394C4.1565 27.3263 4.56861 24.8281 4.61802 24.3547C4.83511 22.968 5.05219 18.9539 5.05219 18.9539C5.08837 18.9539 5.10646 18.9356 5.12455 18.9174C5.14264 18.8992 5.16073 18.8809 5.19691 18.8809C5.55871 16.4725 7.51245 13.3342 13.3013 12.4584H14.1696ZM8.41765 44.1454C8.26895 45.1034 8.1752 45.7074 8.16369 45.8118C13.6631 45.3009 23.9383 36.7618 24.083 27.055C24.1554 22.5301 22.9976 17.0563 17.9324 15.7426C12.7224 15.5237 11.5646 17.8591 11.3476 19.1728C11.2875 19.5364 11.3272 20.252 11.3424 20.5263C11.3455 20.5825 11.3476 20.6201 11.3476 20.6325V20.7785C11.5301 24.0932 9.20454 39.0758 8.41765 44.1454Z" fill="#FF3399"/>
</svg>
