<svg width="91" height="73" viewBox="0 0 91 73" fill="none" xmlns="http://www.w3.org/2000/svg">
<path d="M27.6835 23.2122C27.7933 23.7636 27.8482 24.9215 28.4522 24.8112C29.0561 24.7009 28.6169 24.315 29.0561 24.315C29.4954 24.315 28.7816 26.1344 27.5737 26.5755C27.409 26.6307 27.1894 26.6858 27.0247 26.6858C25.9815 26.6858 25.103 25.6934 24.8285 23.929C24.4991 21.8338 25.8168 16.2651 25.8168 16.2651C26.0913 15.5483 25.6521 14.3354 26.4756 14.4456C27.2992 14.5559 28.0679 14.3905 28.0129 15.824C27.958 17.2024 27.4639 21.9441 27.6835 23.2122ZM26.0913 9.53852H26.256C26.86 9.64879 28.8914 10.2553 28.5071 11.1926C28.2875 11.7991 27.9031 12.2402 27.409 12.2402C27.1894 12.2402 26.9149 12.1299 26.5854 11.8542C26.3109 11.5786 25.0481 9.53852 26.0913 9.53852Z" fill="#FF3399"/>
<path d="M44.045 2.1503C43.6058 4.24547 42.0685 16.1548 41.8489 17.8089C41.6292 19.4079 41.0802 28.0091 41.9587 28.395C42.0136 28.395 42.0685 28.4502 42.0685 28.4502C43.3313 28.4502 44.8686 21.8338 44.8686 21.8338C45.0882 21.503 44.9784 21.0068 45.4176 21.0619C45.802 21.1722 44.3196 26.7409 43.5509 28.5053C42.892 29.9388 42.0136 31.5378 40.6959 31.5378H40.5311C38.4997 31.2621 37.9506 26.0793 38.4997 19.6284C39.0487 13.6737 39.9821 7.93958 39.9821 7.93958C38.884 12.2953 38.1154 15.2175 37.0173 19.8489C36.7977 20.8965 35.0956 28.9464 34.7113 29.4977C34.3819 29.9388 33.8877 30.1594 33.3936 30.1594C32.57 30.1594 31.6915 29.608 31.417 28.3399C31.2523 27.4026 31.1425 21.6133 31.8563 16.0997C32.57 10.5861 33.0092 6.17523 33.0092 6.17523C33.2838 5.5136 33.5583 4.68656 34.3819 4.74169C35.0407 4.79683 36.2486 4.63142 36.2486 5.84441C36.2486 7.11254 35.8643 9.37311 35.7545 10.2553C35.2603 13.2326 34.272 22.3852 34.272 22.3852C34.2171 23.2674 34.3819 23.5982 34.5466 23.5982C34.6564 23.5982 34.9309 23.2674 35.0407 22.9917C36.0839 20.3452 38.5546 10.9169 38.6095 10.4207C38.7193 9.86934 40.4762 2.7568 40.641 2.1503C40.8606 1.15786 41.19 0 42.3979 0C43.7156 0.110272 44.4843 0.110272 44.045 2.1503Z" fill="#FF3399"/>
<path d="M51.2924 20.1246C50.5786 21.4479 48.6021 25.9139 46.7903 25.9139H46.6804C45.4176 25.8036 44.3745 23.8739 45.0333 21.8338C45.6373 19.7387 47.3942 14.8867 47.3942 14.8867C47.7785 14.4456 47.504 13.7288 48.4374 13.784C49.3159 13.8391 49.9747 13.7288 49.5355 14.8867C49.0962 16.0446 46.2961 22.3301 47.1197 22.4403C47.504 22.5506 49.3708 20.3452 51.4022 16.0446C52.3356 14.0597 52.7199 12.5159 53.4886 12.4056C53.8729 12.3505 54.2572 12.2402 54.5867 12.2402C54.971 12.2402 55.3553 12.3505 55.5749 12.7915C56.0142 13.5634 56.7279 16.5408 56.8377 17.6435C56.9476 18.7462 57.0574 19.4079 57.0574 19.4079C57.0574 19.4079 58.8692 18.25 59.2535 18.3051C59.6379 18.4154 56.8377 21.0068 56.8377 21.0068C56.4534 23.1571 56.4534 24.1495 55.9593 26.5204C55.0259 30.6005 51.9513 38.6503 46.9001 38.6503C44.5392 38.54 43.496 36.7205 43.6058 35.5076C43.7156 33.1918 45.5275 30.821 47.6138 28.5604C49.8649 26.1344 53.9827 21.503 53.9827 21.503C54.4769 18.9668 54.3671 15.6586 54.0376 14.5008C53.9278 14.0045 52.116 18.4705 51.2924 20.1246ZM46.5157 35.4524C46.6255 35.5076 46.6804 35.5076 46.7903 35.5076C47.4491 35.5076 48.657 34.4048 49.6453 32.8059C50.7434 30.9864 51.6767 29.0015 53.1592 24.7009C53.1592 24.7009 50.1394 27.6231 48.108 30.3248C46.1314 33.0264 45.9118 35.1216 46.5157 35.4524Z" fill="#FF3399"/>
<path d="M50.0845 57.5619C50.1943 58.1133 50.2492 59.2711 50.8532 59.1609C51.4571 59.0506 51.0179 58.6647 51.4571 58.6647C51.8964 58.6647 51.1826 60.4841 49.9747 60.9252C49.81 60.9804 49.5904 61.0355 49.4257 61.0355C48.3825 61.0355 47.504 60.043 47.2295 58.2787C46.9001 56.1835 48.2178 50.6148 48.2178 50.6148C48.4923 49.898 48.053 48.685 48.8766 48.7953C49.7002 48.9056 50.4688 48.7402 50.4139 50.1737C50.359 51.5521 49.8649 56.2938 50.0845 57.5619ZM48.5472 43.8882H48.657C49.261 43.9985 51.2924 44.605 50.9081 45.5423C50.6885 46.1488 50.3041 46.5899 49.81 46.5899C49.5904 46.5899 49.3159 46.4796 48.9864 46.2039C48.7119 45.9282 47.4491 43.8882 48.5472 43.8882Z" fill="#FF3399"/>
<path d="M66.5009 36.5C66.0617 38.5952 64.5244 50.5045 64.3047 52.1586C64.0851 53.7576 63.5361 62.3588 64.4146 62.7447C64.4695 62.7447 64.5244 62.7999 64.5244 62.7999C65.7872 62.7999 67.3245 56.1835 67.3245 56.1835C67.5441 55.8527 67.4343 55.3565 67.8735 55.4116C68.2579 55.5219 66.7754 61.0906 66.0068 62.855C65.3479 64.2885 64.4695 65.8875 63.1518 65.8875H62.9321C60.9007 65.6118 60.3516 60.429 60.9007 53.9781C61.4497 48.0234 62.3831 42.2893 62.3831 42.2893C61.285 46.645 60.5163 49.5672 59.4183 54.1987C59.1986 55.2462 57.4966 63.2961 57.1123 63.8474C56.7828 64.2885 56.2887 64.5091 55.7946 64.5091C54.971 64.5091 54.0925 63.9577 53.818 62.6896C53.6533 61.7523 53.5435 55.963 54.2572 50.4494C54.971 44.9358 55.4102 40.5249 55.4102 40.5249C55.6848 39.8633 55.9593 39.0363 56.7828 39.0914C57.4417 39.1465 58.6496 38.9811 58.6496 40.1941C58.6496 41.4622 58.2653 43.7228 58.1555 44.605C57.6613 47.5823 56.673 56.7349 56.673 56.7349C56.6181 57.6171 56.7828 57.9479 56.9476 57.9479C57.0574 57.9479 57.3319 57.6171 57.4417 57.3414C58.4849 54.6949 60.9556 45.2666 61.0105 44.7704C61.1203 44.219 62.8772 37.1065 63.0419 36.5C63.2616 35.5076 63.591 34.3497 64.7989 34.3497C66.1166 34.46 66.9402 34.46 66.5009 36.5Z" fill="#FF3399"/>
<path d="M73.6934 54.4743C73.0345 55.7976 71.0031 60.2085 69.1912 60.2085H69.0814C67.8186 60.0982 66.7754 58.1684 67.4343 56.1284C68.0931 54.0884 69.7952 49.1813 69.7952 49.1813C70.1795 48.7402 69.905 48.0234 70.8384 48.0785C71.7168 48.1337 72.3757 48.0234 71.9364 49.1813C71.4972 50.3391 68.752 56.6246 69.5756 56.7349C69.9599 56.8452 71.8266 54.6397 73.8581 50.3391C74.7915 48.3542 75.1758 46.8104 75.9445 46.7001C76.3288 46.645 76.7131 46.5347 77.0426 46.5347C77.4269 46.5347 77.8112 46.645 78.0308 47.0861C78.4701 47.858 79.1838 50.8353 79.2936 51.9381C79.4034 53.0408 79.5133 53.7024 79.5133 53.7024C79.5133 53.7024 81.3251 52.5446 81.7094 52.5997C82.0938 52.71 79.2936 55.3014 79.2936 55.3014C78.9093 57.4517 78.9093 58.4441 78.4152 60.815C77.4818 64.895 74.4071 72.9449 69.3559 72.9449C66.9951 72.8346 65.9519 71.0151 66.0617 69.8021C66.1715 67.4864 67.9833 65.1156 70.0697 62.855C72.3757 60.3739 76.4935 55.7424 76.4935 55.7424C76.9877 53.2062 76.8779 49.898 76.5484 48.7402C76.3288 48.3542 74.5719 52.8202 73.6934 54.4743ZM68.9716 69.8021C69.0814 69.8573 69.1363 69.8573 69.2461 69.8573C69.905 69.8573 71.1129 68.7545 72.1012 67.1556C73.1993 65.3361 74.1326 63.3512 75.615 59.0506C75.615 59.0506 72.5953 61.9728 70.5638 64.6745C68.5324 67.3761 68.3128 69.4713 68.9716 69.8021Z" fill="#FF3399"/>
<path d="M90 29.9388C89.7255 27.1269 87.5293 25.8588 85.1135 25.6934C85.0037 25.6934 84.9488 25.6934 84.839 25.6934C82.9173 25.8588 82.2036 26.8512 82.0388 27.6782C82.0388 27.6782 81.9839 27.6782 81.9839 27.7334C81.9839 27.7334 81.8192 29.0566 81.7094 29.4977C81.5996 29.9388 80.1721 36.114 80.0074 37.1616C79.8427 38.2092 80.5015 39.2568 80.8309 39.2568C81.2153 39.2568 81.3251 39.3119 81.6545 39.0363C81.9839 38.7606 82.0937 38.5952 82.3683 38.2092C82.3683 38.2092 84.8939 37.7681 86.9802 36.0589C88.4078 34.8459 90.2196 32.3097 90 29.9388ZM82.3683 36.6654C82.4232 36.4449 83.9605 29.7734 83.9605 28.4501V28.395C83.9605 28.395 83.9605 28.0642 84.0154 27.8988C84.1252 27.4577 84.5644 26.6858 86.2665 26.9063C87.9136 27.4577 88.1881 29.2772 88.0783 30.7659C87.8038 33.9637 84.235 36.5551 82.3683 36.6654Z" fill="#FF3399"/>
<path d="M76.3288 33.7432C77.5367 36.0589 79.6231 37.3822 79.6231 37.3822C79.7329 37.8233 79.7329 38.0438 79.9525 38.4298C80.1721 38.8157 80.2819 38.8157 80.6113 38.926C80.9408 39.0363 81.8741 38.3195 82.1487 37.2719C82.4232 36.2243 83.4115 29.994 83.4664 29.5529C83.5213 29.1118 83.9056 27.7885 83.9056 27.7885V27.7334C84.0703 26.9615 83.7958 25.7485 82.1487 24.8663C82.0388 24.8112 81.9839 24.8112 81.8741 24.756C79.678 24.0393 77.2622 24.3701 75.9994 26.9063C74.8464 29.1669 75.5052 32.1994 76.3288 33.7432ZM77.3171 28.5053C77.7563 27.0718 78.6897 25.4728 80.3368 25.5831C81.929 26.0242 82.0388 26.9063 81.9839 27.3474C81.9839 27.5128 81.8192 27.7885 81.8192 27.7885V27.8437C81.3251 29.0567 80.227 35.8384 80.1721 36.0589C78.5799 35.287 76.3837 31.5378 77.3171 28.5053Z" fill="#FF3399"/>
<path d="M45.0333 47.4721C44.045 41.0763 38.8291 38.5952 33.2838 38.5952C33.0642 38.5952 32.8445 38.5952 32.6249 38.5952C28.2326 39.2568 26.7502 41.6276 26.4756 43.4471C26.4207 43.4471 26.4207 43.5023 26.3658 43.5023C26.3658 43.5023 26.2011 46.5347 26.0364 47.5823C25.8717 48.6299 23.4559 62.7999 23.2363 65.2258C23.0716 67.6518 24.6089 69.9124 25.4324 69.8573C26.3109 69.8021 26.5854 69.8573 27.2992 69.1956C28.0679 68.534 28.2875 68.0929 28.7816 67.2107C28.7816 67.2107 34.4368 65.8323 38.9389 61.642C42.1234 58.8852 45.9118 52.8202 45.0333 47.4721ZM28.7267 63.7923C28.7816 63.2961 31.3072 47.858 31.1425 44.8807C31.1425 44.8255 31.1425 44.8255 31.1425 44.7704C31.1425 44.7153 31.0876 43.9985 31.1425 43.6677C31.3072 42.6752 32.1857 40.9109 36.1388 41.0763C39.9821 42.0687 40.8606 46.2039 40.8057 49.6224C40.6959 56.9554 32.8994 63.4063 28.7267 63.7923Z" fill="#FF3399"/>
<path d="M22.7419 13.1224C21.7536 6.72658 16.5377 4.24547 10.9923 4.24547C10.7727 4.24547 10.5531 4.24547 10.3335 4.24547C5.94112 4.9071 4.5136 7.27795 4.23908 9.09743C4.18418 9.09743 4.18418 9.15257 4.12927 9.15257C4.12927 9.15257 3.96456 12.185 3.79985 13.2326C3.63513 14.2802 1.16444 28.4502 0.999722 30.8761C0.835009 33.3021 2.37233 35.5627 3.1959 35.5076C4.07437 35.4524 4.34889 35.5076 5.06265 34.8459C5.83131 34.1843 6.05093 33.7432 6.54506 32.861C6.54506 32.861 12.2002 31.4826 16.7024 27.2923C19.8319 24.5355 23.6203 18.4705 22.7419 13.1224ZM6.43526 29.4426C6.49016 28.9464 9.01576 13.5083 8.85105 10.531C8.85105 10.4758 8.85105 10.4758 8.85105 10.4207C8.85105 10.3656 8.79614 9.64879 8.85105 9.31798C9.01576 8.32553 9.89423 6.56118 13.8473 6.72659C17.6907 7.71903 18.5691 11.8542 18.5142 15.2727C18.4044 22.6057 10.608 29.0566 6.43526 29.4426Z" fill="#FF3399"/>
</svg>
