<svg width="116" height="36" viewBox="0 0 116 36" fill="none" xmlns="http://www.w3.org/2000/svg">
<path fill-rule="evenodd" clip-rule="evenodd" d="M107.364 10.8048C107.364 10.8048 105.621 9.70133 104.612 7.77031C103.924 6.43699 103.328 3.90827 104.337 2.0692C105.392 -0.0457238 107.409 -0.321584 109.244 0.276113C109.29 0.299101 109.324 0.310595 109.358 0.322089C109.393 0.333579 109.427 0.345087 109.473 0.368066C110.001 0.6502 110.36 0.972912 110.594 1.29989C110.889 1.18051 111.246 1.09454 111.674 1.05771H111.903C113.921 1.19564 115.756 2.25311 115.985 4.59792C116.168 6.57492 114.655 8.68984 113.463 9.70133C111.72 11.1266 109.611 11.4944 109.611 11.4944L109.574 11.5451C109.371 11.8315 109.275 11.9666 109.014 12.1841C108.782 12.3782 108.681 12.3756 108.461 12.3701C108.421 12.3691 108.376 12.368 108.327 12.368C108.215 12.368 108.058 12.2241 107.92 11.9948C107.821 11.9439 107.745 11.8656 107.639 11.6783C107.502 11.4384 107.467 11.2751 107.42 11.055C107.404 10.98 107.387 10.8983 107.364 10.8048ZM107.914 0.965763C106.538 0.87381 105.758 2.20713 105.392 3.40253C104.612 5.93124 106.446 9.01168 107.776 9.70133C107.785 9.66532 107.828 9.41947 107.893 9.03976C108.162 7.48037 108.82 3.66416 109.152 2.85081V2.80483C109.152 2.80483 109.29 2.57495 109.29 2.43702C109.335 2.0692 109.244 1.33358 107.914 0.965763ZM109.656 10.1611C109.702 9.97719 110.986 4.41401 110.986 3.31057V3.2646C110.986 3.2646 110.986 2.98874 111.032 2.85081C111.124 2.48299 111.491 1.83932 112.912 2.02323C114.288 2.48299 114.517 4.00022 114.426 5.24159C114.15 7.95422 111.17 10.1151 109.656 10.1611Z" fill="white"/>
<path fill-rule="evenodd" clip-rule="evenodd" d="M34.2374 17.7927C34.6047 14.9924 35.6396 7.10247 35.9628 5.56344C36.3058 3.97308 35.767 3.9097 34.7961 3.79549C34.7285 3.78753 34.6587 3.77933 34.5871 3.77035C33.5782 3.77035 33.303 4.73586 33.1196 5.56344C32.982 6.06918 31.5146 12.0002 31.4229 12.4599C31.377 12.8737 29.3134 20.7357 28.4421 22.9426C28.3504 23.1725 28.1211 23.4484 28.0294 23.4484C27.8918 23.4484 27.7542 23.1725 27.8001 22.4369C27.8001 22.4369 28.6255 14.8048 29.0383 12.322C29.0601 12.1471 29.0948 11.9073 29.1351 11.6291L29.1353 11.6284C29.2645 10.7363 29.451 9.44965 29.451 8.64388C29.451 7.77785 28.7114 7.75442 28.1533 7.73673C28.0596 7.73376 27.971 7.73095 27.8918 7.72434C27.2515 7.68154 27.0085 8.27621 26.7931 8.80367C26.7771 8.84282 26.7612 8.88161 26.7454 8.91974C26.7454 8.91974 26.3785 12.5979 25.7824 17.1955C25.1862 21.7932 25.2779 26.6208 25.4155 27.4024C25.6448 28.4598 26.3785 28.9196 27.0664 28.9196C27.4791 28.9196 27.8918 28.7357 28.167 28.3679C28.488 27.9081 29.9096 21.1955 30.093 20.322C30.7815 17.4227 31.315 15.3267 31.9262 12.9252L31.9264 12.924C32.1293 12.1269 32.3408 11.296 32.5693 10.391C32.5693 10.391 31.7897 15.1726 31.3312 20.138C30.8726 25.5173 31.3312 29.8391 33.0279 30.069H33.1655C34.2661 30.069 34.9998 28.7357 35.5501 27.5403C35.8786 26.7874 36.3633 25.2035 36.7153 23.8242C36.938 24.6946 37.5164 25.3229 38.164 25.3794H38.2557C39.5645 25.3794 40.9762 22.5938 41.7195 21.1271C41.8357 20.8979 41.9355 20.7009 42.016 20.5518C42.2521 20.0784 42.5855 19.3341 42.9253 18.5755C43.5752 17.1243 44.2487 15.6207 44.3089 15.8622C44.5841 16.8277 44.6758 19.5863 44.2631 21.7013C44.2631 21.7013 40.8237 25.5633 38.9894 27.5863C37.2468 29.4713 35.7335 31.4483 35.6418 33.3793C35.5501 34.3908 36.4214 35.908 38.3933 36C42.6122 36 45.1802 29.2874 45.9598 25.8851C46.1969 24.7496 46.2978 23.9932 46.4015 23.2153C46.4784 22.639 46.5569 22.0505 46.6935 21.2875C46.6935 21.2875 49.0323 19.0806 48.7113 19.0346C48.3903 18.9886 46.877 19.9541 46.877 19.9541C46.877 19.9541 46.7853 19.4024 46.6935 18.4829C46.6018 17.5633 46.0057 15.0806 45.6388 14.4369C45.4554 14.0691 45.1344 13.9772 44.8134 13.9772C44.6363 13.9772 44.4402 14.0153 44.2373 14.0547C44.125 14.0765 44.0106 14.0987 43.8962 14.1151C43.4268 14.1823 43.129 14.8885 42.6982 15.9102C42.5397 16.286 42.3632 16.7045 42.1536 17.1496C40.4569 20.7357 38.8977 22.5748 38.5767 22.4829C38.0032 22.4062 39.5016 18.7502 40.2284 16.977C40.3733 16.6234 40.4876 16.3446 40.5486 16.184C40.8766 15.3207 40.4713 15.3029 39.8573 15.2759C39.7846 15.2727 39.709 15.2694 39.6314 15.2645C39.1169 15.2342 39.0418 15.4842 38.958 15.7635C38.9148 15.9073 38.8693 16.059 38.7601 16.184C38.7601 16.184 37.5924 19.4037 36.9822 21.3389C36.8513 21.3744 36.8149 21.5095 36.7734 21.6633C36.7452 21.7678 36.7147 21.8808 36.6507 21.9771C36.6507 21.9771 35.3666 27.4943 34.3119 27.4943C34.3119 27.4943 34.2661 27.4483 34.2202 27.4483C33.4865 27.1265 33.9451 19.9541 34.1285 18.6208C34.1503 18.4567 34.1878 18.1709 34.2374 17.7927ZM38.0264 33.3793C38.1181 33.4253 38.164 33.4253 38.2557 33.4253C38.806 33.4253 39.8149 32.5058 40.6403 31.1724C41.5575 29.6552 42.337 28.0001 43.5752 24.4139C43.5752 24.4139 41.053 26.8506 39.3563 29.1035C37.7054 31.3104 37.522 33.0575 38.0264 33.3793Z" fill="white"/>
<path d="M22.3414 23.3905C22.3264 23.2933 22.3124 23.2029 22.2972 23.1265C22.1664 22.3728 22.3385 20.1474 22.4648 18.515C22.5157 17.8573 22.5591 17.2957 22.5723 16.9656C22.6118 15.9369 22.1418 15.8956 21.5716 15.8455C21.4792 15.8374 21.3842 15.829 21.2883 15.8162C20.8477 15.7573 20.8398 16.1511 20.8308 16.5989C20.8258 16.8502 20.8204 17.1186 20.738 17.3335C20.738 17.3335 19.6374 21.9771 19.9125 23.7242C20.1418 25.1955 20.8756 26.023 21.7469 26.023C21.8844 26.023 22.0679 25.9771 22.2054 25.9311C23.2143 25.5633 23.8105 24.0461 23.4436 24.0461C23.2733 24.0461 23.2611 24.1154 23.2465 24.199C23.2296 24.2954 23.2094 24.4106 22.9392 24.4598C22.5186 24.5365 22.4168 23.878 22.3414 23.3905Z" fill="white"/>
<path d="M21.1049 11.7243H20.9673C20.096 11.7243 21.1507 13.4714 21.38 13.6553C21.6551 13.8852 21.8844 13.9772 22.0679 13.9772C22.4806 13.9772 22.8016 13.6093 22.985 13.1036C23.306 12.322 21.6093 11.8163 21.1049 11.7243Z" fill="white"/>
<path d="M79.6179 23.3906C79.6029 23.2934 79.5889 23.203 79.5736 23.1265C79.4429 22.3727 79.615 20.1472 79.7413 18.5148C79.7922 17.8572 79.8356 17.2957 79.8488 16.9656C79.8882 15.9369 79.4183 15.8956 78.8481 15.8455C78.7557 15.8374 78.6607 15.829 78.5648 15.8162C78.1242 15.7573 78.1163 16.1511 78.1073 16.5989C78.1023 16.8502 78.0969 17.1186 78.0145 17.3335C78.0145 17.3335 76.9139 21.9771 77.189 23.7242C77.4183 25.1955 78.152 26.023 79.0233 26.023C79.1609 26.023 79.3443 25.9771 79.4819 25.9311C80.4908 25.5633 81.0869 24.0461 80.7201 24.0461C80.5497 24.0461 80.5376 24.1154 80.5229 24.199C80.5061 24.2954 80.4859 24.4106 80.2156 24.4598C79.7951 24.5365 79.6933 23.8781 79.6179 23.3906Z" fill="white"/>
<path d="M78.3813 11.7243H78.2896C77.3725 11.7243 78.4272 13.4714 78.6565 13.6553C78.9316 13.8852 79.1609 13.9772 79.3443 13.9772C79.7571 13.9772 80.0781 13.6093 80.2615 13.1036C80.5825 12.322 78.8858 11.8163 78.3813 11.7243Z" fill="white"/>
<path fill-rule="evenodd" clip-rule="evenodd" d="M93.2851 5.56344C92.9619 7.10262 91.9269 14.9936 91.5597 17.7932C91.5101 18.1714 91.4727 18.4567 91.4508 18.6208C91.2674 19.9541 90.8088 27.1265 91.5425 27.4483C91.5884 27.4483 91.6343 27.4943 91.6343 27.4943C92.689 27.4943 93.973 21.9771 93.973 21.9771C94.037 21.8808 94.0675 21.7678 94.0957 21.6633C94.1284 21.542 94.158 21.4324 94.2332 21.374C94.8357 19.4491 96.0366 16.1381 96.0366 16.1381C96.1458 16.013 96.1913 15.8614 96.2345 15.7175C96.3183 15.4382 96.3934 15.1882 96.9079 15.2185C96.9855 15.2234 97.0611 15.2267 97.1338 15.2299C97.7478 15.2569 98.1531 15.2747 97.8251 16.1381C97.7641 16.2986 97.6498 16.5773 97.5049 16.931C96.7781 18.7041 95.2797 22.3602 95.8532 22.4369C96.1742 22.5288 97.7334 20.6898 99.4301 17.1036C99.6397 16.6585 99.8162 16.24 99.9747 15.8643C100.406 14.8425 100.703 14.1363 101.173 14.0691C101.287 14.0527 101.401 14.0305 101.514 14.0087C101.717 13.9693 101.913 13.9312 102.09 13.9312C102.411 13.9312 102.732 14.0231 102.915 14.3909C103.282 15.0346 103.878 17.5174 103.97 18.4369C104.062 19.3564 104.153 19.9081 104.153 19.9081C104.153 19.9081 105.667 18.9426 105.988 18.9886C106.309 19.0806 103.97 21.2415 103.97 21.2415C103.833 22.0044 103.755 22.5926 103.678 23.1688C103.574 23.9467 103.473 24.7036 103.236 25.8391C102.457 29.2414 99.8887 35.954 95.6698 35.954C93.6979 35.8621 92.8266 34.3448 92.9183 33.3333C93.01 31.4023 94.5233 29.4253 96.2659 27.5403C98.1919 25.4713 101.631 21.6093 101.631 21.6093C102.044 19.4944 101.952 16.7358 101.677 15.7702C101.552 15.582 100.808 17.2348 100.129 18.7421C99.8128 19.4437 99.511 20.1137 99.2925 20.5518C99.2552 20.6267 99.2125 20.7135 99.165 20.8102L99.1645 20.8112C98.5119 22.1393 96.9424 25.3334 95.5322 25.3334H95.4405C94.8201 25.2793 94.2632 24.7003 94.0217 23.8865C93.6712 25.2509 93.1961 26.7987 92.8724 27.5403C92.3221 28.7357 91.5884 30.069 90.4878 30.069H90.3044C88.6076 29.8391 88.1491 25.5173 88.6076 20.138C89.0662 15.1726 89.8458 10.391 89.8458 10.391C89.6171 11.2966 89.4056 12.1279 89.2026 12.9254C88.5914 15.3268 88.058 17.4228 87.3695 20.322C87.186 21.1955 85.7645 27.9081 85.4435 28.3679C85.1683 28.7357 84.7556 28.9196 84.3429 28.9196C83.655 28.9196 82.9213 28.4598 82.692 27.4024C82.5544 26.6208 82.4627 21.7932 83.0588 17.1955C83.655 12.5979 84.0219 8.91974 84.0219 8.91974C84.0372 8.88291 84.0525 8.84547 84.0679 8.80767L84.0689 8.8051L84.0695 8.80367C84.285 8.27622 84.528 7.68154 85.1683 7.72434C85.2474 7.73095 85.3361 7.73376 85.4298 7.73673C85.9879 7.75442 86.7275 7.77785 86.7275 8.64388C86.7275 9.44995 86.541 10.7369 86.4116 11.629L86.4115 11.6301C86.3712 11.9079 86.3365 12.1474 86.3148 12.322C85.902 14.8048 85.0766 22.4369 85.0766 22.4369C85.0307 23.1725 85.1683 23.4484 85.3059 23.4484C85.3976 23.4484 85.6269 23.1725 85.7186 22.9426C86.5899 20.7357 88.6535 12.8737 88.6994 12.4599C88.7911 12.0002 90.2585 6.06918 90.3961 5.56344C90.5795 4.73586 90.8547 3.77035 91.8636 3.77035C91.938 3.77967 92.0105 3.78816 92.0809 3.7964C93.0523 3.91005 93.6272 3.9773 93.2851 5.56344ZM95.5322 33.4253C95.4405 33.4253 95.3946 33.4253 95.3029 33.3793C94.7985 33.0575 94.9819 31.3104 96.6328 29.1035C98.3295 26.8506 100.852 24.4139 100.852 24.4139C99.6135 28 98.834 29.6552 97.9168 31.1724C97.0913 32.5058 96.0825 33.4253 95.5322 33.4253Z" fill="white"/>
<path fill-rule="evenodd" clip-rule="evenodd" d="M75.3547 14.7588C74.4834 9.42546 70.1728 7.31053 65.5411 7.31053H64.9908C61.3222 7.86225 60.084 9.83925 59.8548 11.3565C59.8318 11.3565 59.8204 11.368 59.8089 11.3795C59.7974 11.391 59.786 11.4025 59.763 11.4025C59.763 11.4025 59.6255 13.9312 59.4879 14.8047C59.4614 14.973 59.3652 15.547 59.2258 16.3788C58.6412 19.8661 57.2973 27.8839 57.1491 29.5173C57.0116 31.5402 58.2956 33.4253 58.9835 33.3793C59.0573 33.3747 59.126 33.371 59.1905 33.3675C59.7667 33.3366 60.0066 33.3237 60.5426 32.8276C61.1446 32.3103 61.3434 31.9547 61.706 31.306L61.7808 31.1724C61.7808 31.1724 66.5042 30.023 70.2645 26.5288C72.9243 24.23 76.0426 19.1725 75.3547 14.7588ZM61.7349 28.3219C61.7422 28.2561 61.8016 27.8756 61.8959 27.272C62.3946 24.0782 63.8684 14.64 63.7527 12.5519V12.4599C63.7527 12.4521 63.7514 12.4285 63.7494 12.3933C63.7398 12.2205 63.7146 11.7694 63.7527 11.5404C63.8903 10.7128 64.624 9.24156 67.9258 9.37949C71.1358 10.2071 71.8695 13.6553 71.8237 16.5059C71.7319 22.6208 65.2201 28 61.7349 28.3219Z" fill="white"/>
<path fill-rule="evenodd" clip-rule="evenodd" d="M8.35636 7.31053C12.988 7.31053 17.2986 9.42546 18.1699 14.7588C18.9037 19.1725 15.7395 24.23 13.1256 26.5288C9.36523 30.023 4.64187 31.1724 4.64187 31.1724C4.61613 31.2183 4.59128 31.2628 4.56715 31.3059C4.20449 31.9547 4.00568 32.3103 3.40371 32.8276C2.86769 33.3237 2.62825 33.3365 2.05206 33.3675C1.98742 33.371 1.91855 33.3747 1.84454 33.3793C1.15667 33.4253 -0.127347 31.5402 0.0102264 29.5173C0.10083 28.185 1.02681 22.6052 1.67474 18.7008C2.01063 16.6768 2.27181 15.103 2.30312 14.8047C2.44069 13.9312 2.57827 11.4025 2.57827 11.4025C2.6012 11.4025 2.61266 11.391 2.62413 11.3795C2.63559 11.368 2.64705 11.3565 2.66998 11.3565C2.89927 9.83925 4.13744 7.86225 7.80607 7.31053H8.35636ZM4.7111 27.2721C4.61686 27.8756 4.55744 28.2561 4.55016 28.3219C8.03535 28 14.5472 22.6208 14.6389 16.5059C14.6847 13.6553 13.951 10.2071 10.741 9.37949C7.4392 9.24156 6.70548 10.7128 6.5679 11.5404C6.52983 11.7694 6.55497 12.2202 6.56461 12.393C6.56658 12.4284 6.5679 12.4521 6.5679 12.4599V12.5519C6.68361 14.64 5.20978 24.0785 4.7111 27.2721Z" fill="white"/>
</svg>
