<svg width="70" height="57" viewBox="0 0 70 57" fill="none" xmlns="http://www.w3.org/2000/svg">
<path d="M20.9896 18.1383C21.076 18.5692 21.1191 19.4739 21.594 19.3878C22.0688 19.3016 21.7235 19 22.0688 19C22.4142 19 21.853 20.4218 20.9033 20.7664C20.7738 20.8095 20.6011 20.8526 20.4716 20.8526C19.6514 20.8526 18.9607 20.0771 18.7449 18.6984C18.4859 17.0612 19.5219 12.7098 19.5219 12.7098C19.7378 12.1497 19.3924 11.2018 20.0399 11.288C20.6875 11.3742 21.2918 11.2449 21.2487 12.3651C21.2055 13.4422 20.817 17.1474 20.9896 18.1383ZM19.7378 7.45352H19.8673C20.3421 7.53968 21.9393 8.01361 21.6372 8.74603C21.4645 9.21996 21.1623 9.56463 20.7738 9.56463C20.6011 9.56463 20.3853 9.47846 20.1263 9.26304C19.9104 9.04762 18.9176 7.45352 19.7378 7.45352Z" fill="#333333"/>
<path d="M33.8538 1.68027C33.5085 3.31746 32.2997 12.6236 32.1271 13.9161C31.9544 15.1655 31.5227 21.8866 32.2134 22.1882C32.2566 22.1882 32.2997 22.2313 32.2997 22.2313C33.2926 22.2313 34.5013 17.0612 34.5013 17.0612C34.674 16.8027 34.5877 16.415 34.933 16.458C35.2352 16.5442 34.0696 20.8957 33.4653 22.2744C32.9473 23.3946 32.2566 24.644 31.2205 24.644H31.091C29.4938 24.4286 29.0621 20.3787 29.4938 15.3379C29.9255 10.6848 30.6593 6.20408 30.6593 6.20408C29.796 9.60771 29.1916 11.8912 28.3283 15.5102C28.1556 16.3288 26.8174 22.619 26.5152 23.0499C26.2562 23.3946 25.8677 23.5669 25.4791 23.5669C24.8316 23.5669 24.1409 23.1361 23.9251 22.1451C23.7956 21.4127 23.7092 16.8889 24.2704 12.5805C24.8316 8.27211 25.177 4.8254 25.177 4.8254C25.3928 4.30839 25.6087 3.66213 26.2562 3.70522C26.7742 3.7483 27.7239 3.61905 27.7239 4.56689C27.7239 5.55782 27.4217 7.32426 27.3354 8.01361C26.9469 10.3401 26.1698 17.4921 26.1698 17.4921C26.1267 18.1814 26.2562 18.4399 26.3857 18.4399C26.472 18.4399 26.6879 18.1814 26.7742 17.966C27.5944 15.898 29.537 8.53061 29.5801 8.14286C29.6665 7.71202 31.0479 2.1542 31.1774 1.68027C31.35 0.904762 31.609 0 32.5588 0C33.5948 0.0861678 34.1992 0.0861678 33.8538 1.68027Z" fill="#333333"/>
<path d="M39.552 15.7256C38.9908 16.7596 37.4368 20.2494 36.0122 20.2494H35.9259C34.933 20.1633 34.1128 18.6553 34.6308 17.0612C35.1057 15.424 36.4871 11.6327 36.4871 11.6327C36.7892 11.288 36.5734 10.7279 37.3073 10.771C37.998 10.8141 38.516 10.7279 38.1706 11.6327C37.8253 12.5374 35.6237 17.449 36.2712 17.5351C36.5734 17.6213 38.0411 15.898 39.6384 12.5374C40.3722 10.9864 40.6744 9.78004 41.2788 9.69387C41.5809 9.65079 41.8831 9.56462 42.1421 9.56462C42.4443 9.56462 42.7465 9.65079 42.9191 9.99546C43.2645 10.5986 43.8257 12.9252 43.912 13.7868C43.9984 14.6485 44.0847 15.1655 44.0847 15.1655C44.0847 15.1655 45.5092 14.2608 45.8114 14.3039C46.1136 14.39 43.912 16.415 43.912 16.415C43.6098 18.0952 43.6098 18.8707 43.2213 20.7234C42.4875 23.9116 40.07 30.2018 36.0986 30.2018C34.2423 30.1156 33.4221 28.6939 33.5085 27.746C33.5948 25.9365 35.0193 24.0839 36.6597 22.3175C38.4296 20.4218 41.6673 16.8027 41.6673 16.8027C42.0558 14.8209 41.9694 12.2358 41.7104 11.3311C41.6241 10.9433 40.1995 14.4331 39.552 15.7256ZM35.7964 27.7029C35.8827 27.746 35.9259 27.746 36.0122 27.746C36.5302 27.746 37.4799 26.8843 38.257 25.6349C39.1203 24.2131 39.8542 22.6621 41.0197 19.3016C41.0197 19.3016 38.6455 21.585 37.0483 23.6961C35.4942 25.8073 35.3215 27.4444 35.7964 27.7029Z" fill="#333333"/>
<path d="M38.6023 44.9796C38.6887 45.4104 38.7318 46.3152 39.2067 46.229C39.6815 46.1429 39.3362 45.8413 39.6815 45.8413C40.0269 45.8413 39.4657 47.263 38.516 47.6077C38.3865 47.6508 38.2138 47.6939 38.0843 47.6939C37.2641 47.6939 36.5734 46.9184 36.3576 45.5397C36.0985 43.9025 37.1346 39.551 37.1346 39.551C37.3504 38.9909 37.0051 38.0431 37.6526 38.1292C38.3001 38.2154 38.9045 38.0862 38.8613 39.2063C38.8182 40.2834 38.4296 43.9887 38.6023 44.9796ZM37.3936 34.2948H37.4799C37.9548 34.3809 39.552 34.8549 39.2498 35.5873C39.0772 36.0612 38.775 36.4059 38.3865 36.4059C38.2138 36.4059 37.998 36.3197 37.739 36.1043C37.5231 35.8889 36.5302 34.2948 37.3936 34.2948Z" fill="#333333"/>
<path d="M51.5096 28.5215C51.1643 30.1587 49.9556 39.4649 49.7829 40.7574C49.6102 42.0068 49.1786 48.7279 49.8692 49.0295C49.9124 49.0295 49.9556 49.0726 49.9556 49.0726C50.9485 49.0726 52.1572 43.9025 52.1572 43.9025C52.3298 43.644 52.2435 43.2562 52.5889 43.2993C52.891 43.3855 51.7255 47.737 51.1211 49.1157C50.6031 50.2358 49.9124 51.4853 48.8764 51.4853H48.7037C47.1065 51.2698 46.6748 47.22 47.1065 42.1791C47.5382 37.5261 48.272 33.0454 48.272 33.0454C47.4087 36.449 46.8043 38.7324 45.9409 42.3515C45.7683 43.1701 44.43 49.4603 44.1279 49.8912C43.8689 50.2358 43.4803 50.4082 43.0918 50.4082C42.4443 50.4082 41.7536 49.9773 41.5378 48.9864C41.4083 48.254 41.3219 43.7302 41.8831 39.4218C42.4443 35.1134 42.7896 31.6667 42.7896 31.6667C43.0055 31.1497 43.2213 30.5034 43.8689 30.5465C44.3869 30.5896 45.3366 30.4603 45.3366 31.4082C45.3366 32.3991 45.0344 34.1655 44.9481 34.8549C44.5595 37.1814 43.7825 44.3333 43.7825 44.3333C43.7393 45.0227 43.8689 45.2812 43.9984 45.2812C44.0847 45.2812 44.3005 45.0227 44.3869 44.8073C45.2071 42.7392 47.1496 35.3719 47.1928 34.9841C47.2791 34.5533 48.6605 28.9955 48.79 28.5215C48.9627 27.746 49.2217 26.8413 50.1714 26.8413C51.2075 26.9274 51.855 26.9274 51.5096 28.5215Z" fill="#333333"/>
<path d="M57.1647 42.5669C56.6467 43.6009 55.0494 47.0476 53.6249 47.0476H53.5385C52.5457 46.9614 51.7255 45.4535 52.2435 43.8594C52.7615 42.2653 54.0997 38.4308 54.0997 38.4308C54.4019 38.0862 54.1861 37.5261 54.9199 37.5692C55.6106 37.6122 56.1286 37.5261 55.7833 38.4308C55.438 39.3356 53.2795 44.2472 53.9271 44.3333C54.2292 44.4195 55.697 42.6961 57.2942 39.3356C58.0281 37.7846 58.3302 36.5782 58.9346 36.4921C59.2368 36.449 59.5389 36.3628 59.798 36.3628C60.1001 36.3628 60.4023 36.449 60.575 36.7937C60.9203 37.3968 61.4815 39.7234 61.5679 40.585C61.6542 41.4467 61.7405 41.9637 61.7405 41.9637C61.7405 41.9637 63.1651 41.059 63.4673 41.102C63.7694 41.1882 61.5679 43.2132 61.5679 43.2132C61.2657 44.8934 61.2657 45.6689 60.8772 47.5215C60.1433 50.7098 57.7259 57 53.7544 57C51.8982 56.9138 51.078 55.4921 51.1643 54.5442C51.2506 52.7347 52.6752 50.8821 54.3156 49.1156C56.1286 47.1769 59.3663 43.5578 59.3663 43.5578C59.7548 41.576 59.6685 38.9909 59.4094 38.0862C59.2368 37.7846 57.8554 41.2744 57.1647 42.5669ZM53.4522 54.5442C53.5386 54.5873 53.5817 54.5873 53.6681 54.5873C54.1861 54.5873 55.1358 53.7256 55.9128 52.4762C56.7762 51.0544 57.51 49.5034 58.6756 46.1429C58.6756 46.1429 56.3013 48.4263 54.7041 50.5374C53.1069 52.6485 52.9342 54.2857 53.4522 54.5442Z" fill="#333333"/>
<path d="M69.9857 23.3946C69.7698 21.1973 68.0431 20.2063 66.1437 20.0771C66.0574 20.0771 66.0142 20.0771 65.9278 20.0771C64.417 20.2063 63.8558 20.9819 63.7263 21.6281C63.7263 21.6281 63.6831 21.6281 63.6831 21.6712C63.6831 21.6712 63.5536 22.7052 63.4672 23.0499C63.3809 23.3946 62.2585 28.22 62.129 29.0385C61.9995 29.8571 62.5175 30.6757 62.7766 30.6757C63.0787 30.6757 63.1651 30.7188 63.4241 30.5034C63.6831 30.288 63.7694 30.1587 63.9853 29.8571C63.9853 29.8571 65.971 29.5125 67.6114 28.1769C68.7338 27.229 70.1584 25.2472 69.9857 23.3946ZM63.9853 28.6508C64.0284 28.4785 65.2372 23.2653 65.2372 22.2313V22.1882C65.2372 22.1882 65.2372 21.9297 65.2803 21.8005C65.3667 21.4558 65.712 20.8526 67.0502 21.0249C68.3453 21.4558 68.5611 22.8775 68.4748 24.0408C68.2589 26.5397 65.453 28.5646 63.9853 28.6508Z" fill="#333333"/>
<path d="M59.2368 26.3674C60.1865 28.1769 61.8269 29.2109 61.8269 29.2109C61.9132 29.5556 61.9132 29.7279 62.0859 30.0295C62.2585 30.3311 62.3449 30.3311 62.6039 30.4172C62.8629 30.5034 63.5968 29.9433 63.8126 29.1247C64.0284 28.3061 64.8055 23.4376 64.8486 23.093C64.8918 22.7483 65.194 21.7143 65.194 21.7143V21.6712C65.3235 21.068 65.1077 20.1202 63.8126 19.4308C63.7263 19.3878 63.6831 19.3878 63.5968 19.3447C61.87 18.7846 59.9706 19.0431 58.9778 21.0249C58.0712 22.7914 58.5892 25.161 59.2368 26.3674ZM60.0138 22.2744C60.3591 21.1542 61.093 19.9048 62.3881 19.9909C63.6399 20.3356 63.7263 21.0249 63.6831 21.3696C63.6831 21.4989 63.5536 21.7143 63.5536 21.7143V21.7574C63.1651 22.7052 62.3017 28.0045 62.2585 28.1769C61.0067 27.5737 59.2799 24.644 60.0138 22.2744Z" fill="#333333"/>
<path d="M34.6308 37.0952C33.8538 32.0975 29.7528 30.1587 25.3928 30.1587C25.2201 30.1587 25.0475 30.1587 24.8748 30.1587C21.4213 30.6757 20.2558 32.5283 20.0399 33.9501C19.9968 33.9501 19.9968 33.9932 19.9536 33.9932C19.9536 33.9932 19.8241 36.3628 19.6946 37.1814C19.5651 38 17.6657 49.0726 17.493 50.9683C17.3635 52.8639 18.5722 54.6304 19.2197 54.5873C19.9104 54.5442 20.1263 54.5873 20.6875 54.0703C21.2918 53.5533 21.4645 53.2086 21.853 52.5193C21.853 52.5193 26.2993 51.4422 29.8392 48.1678C32.3429 46.0136 35.3215 41.2744 34.6308 37.0952ZM21.8098 49.8481C21.853 49.4603 23.8388 37.3968 23.7093 35.0703C23.7093 35.0272 23.7093 35.0272 23.7093 34.9841C23.7093 34.941 23.6661 34.3809 23.7093 34.1224C23.8388 33.3469 24.5294 31.9683 27.6376 32.0975C30.6593 32.873 31.35 36.1043 31.3069 38.7755C31.2205 44.5057 25.0906 49.5465 21.8098 49.8481Z" fill="#333333"/>
<path d="M17.1043 10.254C16.3272 5.25623 12.2263 3.31746 7.86626 3.31746C7.69359 3.31746 7.52091 3.31746 7.34824 3.31746C3.89478 3.83447 2.7724 5.68707 2.55656 7.10884C2.51339 7.10884 2.51339 7.15193 2.47022 7.15193C2.47022 7.15193 2.34072 9.52154 2.21121 10.3401C2.08171 11.1587 0.139132 22.2313 0.00962665 24.127C-0.119878 26.0227 1.08883 27.7891 1.73636 27.746C2.42705 27.7029 2.64289 27.746 3.20408 27.229C3.80844 26.712 3.98111 26.3673 4.36963 25.678C4.36963 25.678 8.81596 24.6009 12.3558 21.3265C14.8164 19.1723 17.795 14.4331 17.1043 10.254ZM4.28329 23.0068C4.32646 22.619 6.3122 10.5556 6.1827 8.22902C6.1827 8.18594 6.1827 8.18594 6.1827 8.14286C6.1827 8.09977 6.13953 7.53968 6.1827 7.28118C6.3122 6.50567 7.00289 5.12698 10.111 5.25624C13.1328 6.03175 13.8235 9.26304 13.7803 11.9342C13.694 17.6644 7.56408 22.7052 4.28329 23.0068Z" fill="#333333"/>
</svg>
