<svg width="203" height="166" viewBox="0 0 203 166" fill="none" xmlns="http://www.w3.org/2000/svg">
    <path d="M60.87 52.8239C61.1203 54.0786 61.2455 56.7135 62.6226 56.4626C63.9997 56.2116 62.9982 55.3333 63.9997 55.3333C65.0012 55.3333 63.3737 59.4739 60.6196 60.4777C60.244 60.6032 59.7433 60.7287 59.3677 60.7287C56.9891 60.7287 54.9861 58.4702 54.3602 54.455C53.6091 49.6871 56.6136 37.0144 56.6136 37.0144C57.2395 35.3832 56.238 32.6228 58.1158 32.8738C59.9936 33.1247 61.7463 32.7483 61.6211 36.0106C61.4959 39.1474 60.3692 49.938 60.87 52.8239ZM57.2395 21.7067H57.6151C58.9921 21.9577 63.6241 23.3379 62.7478 25.4709C62.247 26.8511 61.3707 27.8549 60.244 27.8549C59.7433 27.8549 59.1173 27.6039 58.3662 26.9766C57.7403 26.3492 54.8609 21.7067 57.2395 21.7067Z" fill="white"/>
    <path d="M98.176 4.89342C97.1745 9.66138 93.6693 36.7634 93.1685 40.5276C92.6678 44.1663 91.4159 63.74 93.4189 64.6183C93.5441 64.6183 93.6693 64.7438 93.6693 64.7438C96.5486 64.7438 100.054 49.6871 100.054 49.6871C100.555 48.9342 100.304 47.805 101.306 47.9305C102.182 48.1814 98.802 60.8541 97.0493 64.8692C95.5471 68.1315 93.5441 71.7702 90.5396 71.7702H90.164C85.532 71.1429 84.2802 59.3484 85.532 44.6682C86.7839 31.1172 88.9121 18.068 88.9121 18.068C86.4083 27.9803 84.6557 34.6304 82.1519 45.1701C81.6512 47.554 77.7704 65.873 76.8941 67.1277C76.1429 68.1315 75.0162 68.6334 73.8895 68.6334C72.0117 68.6334 70.0087 67.3787 69.3828 64.4928C69.0072 62.3598 68.7568 49.1852 70.3843 36.6379C72.0117 24.0907 73.0132 14.0529 73.0132 14.0529C73.6392 12.5472 74.2651 10.6652 76.1429 10.7906C77.6452 10.9161 80.3993 10.5397 80.3993 13.3001C80.3993 16.1859 79.523 21.3303 79.2726 23.3379C78.1459 30.1134 75.8925 50.9418 75.8925 50.9418C75.7673 52.9494 76.1429 53.7022 76.5185 53.7022C76.7689 53.7022 77.3948 52.9494 77.6452 52.322C80.0237 46.2993 85.6572 24.8435 85.7824 23.7143C86.0328 22.4596 90.0388 6.27362 90.4144 4.89342C90.9151 2.63492 91.6662 0 94.4204 0C97.4249 0.250945 99.1775 0.250945 98.176 4.89342Z" fill="white"/>
    <path d="M114.701 45.7974C113.073 48.8088 108.567 58.972 104.435 58.972H104.185C101.306 58.7211 98.9272 54.3295 100.429 49.6871C101.806 44.9191 105.813 33.8775 105.813 33.8775C106.689 32.8738 106.063 31.2426 108.191 31.3681C110.194 31.4936 111.696 31.2426 110.695 33.8775C109.693 36.5125 103.309 50.8163 105.187 51.0673C106.063 51.3182 110.319 46.2993 114.951 36.5125C117.079 31.9955 117.956 28.4822 119.708 28.2313C120.585 28.1058 121.461 27.8549 122.212 27.8549C123.088 27.8549 123.965 28.1058 124.466 29.1096C125.467 30.8662 127.094 37.6417 127.345 40.1512C127.595 42.6606 127.846 44.1663 127.846 44.1663C127.846 44.1663 131.977 41.5314 132.853 41.6568C133.729 41.9078 127.345 47.805 127.345 47.805C126.469 52.6984 126.469 54.9569 125.342 60.3522C123.214 69.6372 116.203 87.9561 104.686 87.9561C99.3027 87.7052 96.9241 83.5646 97.1745 80.8042C97.4249 75.5344 101.556 70.1391 106.313 64.9947C111.446 59.4739 120.835 48.9342 120.835 48.9342C121.962 43.1625 121.711 35.6342 120.96 32.9992C120.71 31.87 116.579 42.0333 114.701 45.7974ZM103.81 80.6787C104.06 80.8042 104.185 80.8042 104.435 80.8042C105.938 80.8042 108.692 78.2948 110.945 74.6561C113.449 70.5155 115.577 65.9985 118.957 56.2116C118.957 56.2116 112.072 62.8617 107.44 69.0098C102.933 75.158 102.432 79.9259 103.81 80.6787Z" fill="white"/>
    <path d="M111.947 130.993C112.197 132.248 112.322 134.883 113.699 134.632C115.076 134.381 114.075 133.503 115.076 133.503C116.078 133.503 114.45 137.643 111.696 138.647C111.321 138.772 110.82 138.898 110.444 138.898C108.066 138.898 106.063 136.639 105.437 132.624C104.686 127.856 107.69 115.184 107.69 115.184C108.316 113.553 107.315 110.792 109.193 111.043C111.07 111.294 112.823 110.918 112.698 114.18C112.573 117.317 111.446 128.107 111.947 130.993ZM108.441 99.876H108.692C110.069 100.127 114.701 101.507 113.825 103.64C113.324 105.02 112.447 106.024 111.321 106.024C110.82 106.024 110.194 105.773 109.443 105.146C108.817 104.519 105.938 99.876 108.441 99.876Z" fill="white"/>
    <path d="M149.378 83.0628C148.376 87.8307 144.871 114.933 144.37 118.697C143.87 122.336 142.618 141.909 144.621 142.788C144.746 142.788 144.871 142.913 144.871 142.913C147.751 142.913 151.256 127.856 151.256 127.856C151.757 127.104 151.506 125.974 152.508 126.1C153.384 126.351 150.004 139.023 148.251 143.039C146.749 146.301 144.746 149.94 141.741 149.94H141.241C136.609 149.312 135.357 137.518 136.609 122.838C137.861 109.286 139.989 96.2373 139.989 96.2373C137.485 106.15 135.732 112.8 133.229 123.339C132.728 125.723 128.847 144.042 127.971 145.297C127.22 146.301 126.093 146.803 124.966 146.803C123.088 146.803 121.085 145.548 120.46 142.662C120.084 140.529 119.834 127.355 121.461 114.807C123.088 102.26 124.09 92.2222 124.09 92.2222C124.716 90.7166 125.342 88.8345 127.22 88.96C128.722 89.0854 131.476 88.709 131.476 91.4694C131.476 94.3553 130.6 99.4996 130.349 101.507C129.223 108.283 126.969 129.111 126.969 129.111C126.844 131.119 127.22 131.872 127.595 131.872C127.846 131.872 128.472 131.119 128.722 130.491C131.101 124.469 136.734 103.013 136.859 101.884C137.11 100.629 141.116 84.4429 141.491 83.0628C141.992 80.8042 142.743 78.1693 145.497 78.1693C148.502 78.4203 150.379 78.4203 149.378 83.0628Z" fill="white"/>
    <path d="M165.778 123.967C164.275 126.978 159.643 137.016 155.512 137.016H155.262C152.382 136.765 150.004 132.373 151.506 127.731C153.008 123.088 156.889 111.921 156.889 111.921C157.766 110.918 157.14 109.286 159.268 109.412C161.271 109.537 162.773 109.286 161.772 111.921C160.77 114.556 154.511 128.86 156.388 129.111C157.265 129.362 161.521 124.343 166.153 114.556C168.281 110.039 169.158 106.526 170.91 106.275C171.787 106.15 172.663 105.899 173.414 105.899C174.29 105.899 175.167 106.15 175.667 107.153C176.669 108.91 178.296 115.686 178.547 118.195C178.797 120.704 179.048 122.21 179.048 122.21C179.048 122.21 183.179 119.575 184.055 119.701C184.931 119.952 178.547 125.849 178.547 125.849C177.67 130.742 177.67 133.001 176.544 138.396C174.416 147.681 167.405 166 155.888 166C150.505 165.749 148.126 161.608 148.376 158.848C148.627 153.578 152.758 148.183 157.515 143.039C162.773 137.392 172.162 126.853 172.162 126.853C173.289 121.081 173.039 113.553 172.287 110.918C171.787 110.039 167.781 120.203 165.778 123.967ZM155.011 158.848C155.262 158.974 155.387 158.974 155.637 158.974C157.14 158.974 159.894 156.464 162.147 152.825C164.651 148.685 166.779 144.168 170.159 134.381C170.159 134.381 163.274 141.031 158.642 147.179C154.01 153.327 153.509 158.095 155.011 158.848Z" fill="white"/>
    <path d="M202.958 68.1315C202.333 61.7324 197.325 58.8466 191.817 58.4701C191.566 58.4701 191.441 58.4701 191.191 58.4701C186.809 58.8466 185.182 61.1051 184.806 62.9871C184.806 62.9871 184.681 62.9871 184.681 63.1126C184.681 63.1126 184.305 66.124 184.055 67.1277C183.805 68.1315 180.55 82.1844 180.174 84.5684C179.799 86.9524 181.301 89.3363 182.052 89.3363C182.928 89.3363 183.179 89.4618 183.93 88.8345C184.681 88.2071 184.931 87.8307 185.557 86.9524C185.557 86.9524 191.316 85.9486 196.073 82.0589C199.328 79.2986 203.459 73.5268 202.958 68.1315ZM185.557 83.4391C185.682 82.9373 189.188 67.7551 189.188 64.7438V64.6183C189.188 64.6183 189.188 63.8655 189.313 63.489C189.563 62.4853 190.565 60.7286 194.446 61.2305C198.201 62.4853 198.827 66.6258 198.577 70.0136C197.951 77.291 189.814 83.1882 185.557 83.4391Z" fill="white"/>
    <path d="M171.787 76.7891C174.541 82.059 179.298 85.0703 179.298 85.0703C179.548 86.0741 179.548 86.576 180.049 87.4543C180.55 88.3326 180.8 88.3326 181.551 88.5835C182.302 88.8345 184.431 87.2033 185.057 84.8194C185.682 82.4354 187.936 68.257 188.061 67.2532C188.186 66.2494 189.063 63.2381 189.063 63.2381V63.1126C189.438 61.356 188.812 58.5956 185.057 56.5881C184.806 56.4626 184.681 56.4626 184.431 56.3371C179.423 54.706 173.915 55.4588 171.036 61.2305C168.407 66.3749 169.909 73.2759 171.787 76.7891ZM174.04 64.8692C175.042 61.607 177.17 57.9683 180.925 58.2192C184.556 59.223 184.806 61.2305 184.681 62.2343C184.681 62.6107 184.305 63.2381 184.305 63.2381V63.3636C183.179 66.124 180.675 81.5571 180.55 82.059C176.919 80.3024 171.912 71.7702 174.04 64.8692Z" fill="white"/>
    <path d="M100.429 108.032C98.176 93.4769 86.2832 87.8307 73.6392 87.8307C73.1384 87.8307 72.6377 87.8307 72.1369 87.8307C62.1219 89.3363 58.7418 94.7317 58.1158 98.8723C57.9907 98.8723 57.9907 98.9977 57.8655 98.9977C57.8655 98.9977 57.4899 105.899 57.1143 108.283C56.7388 110.667 51.2305 142.913 50.7297 148.434C50.3542 153.955 53.8594 159.099 55.7373 158.974C57.7403 158.848 58.3662 158.974 59.9937 157.468C61.7463 155.962 62.247 154.958 63.3737 152.951C63.3737 152.951 76.2681 149.814 86.5335 140.278C93.7944 134.005 102.432 120.203 100.429 108.032ZM63.2486 145.172C63.3737 144.042 69.1324 108.91 68.7568 102.135C68.7568 102.009 68.7568 102.009 68.7568 101.884C68.7568 101.758 68.6316 100.127 68.7568 99.3741C69.1324 97.1156 71.1354 93.1005 80.1489 93.4769C88.9121 95.7354 90.9151 105.146 90.7899 112.925C90.5396 129.613 72.7629 144.293 63.2486 145.172Z" fill="white"/>
    <path d="M49.6024 29.8624C47.349 15.3076 35.4562 9.66137 22.8122 9.66137C22.3114 9.66137 21.8106 9.66137 21.3099 9.66137C11.2948 11.167 8.03996 16.5624 7.41402 20.7029C7.28883 20.7029 7.28883 20.8284 7.16364 20.8284C7.16364 20.8284 6.78808 27.7294 6.41251 30.1134C6.03695 32.4974 0.403482 64.7438 0.0279173 70.2645C-0.347647 75.7853 3.15762 80.9297 5.03544 80.8042C7.03845 80.6788 7.66439 80.8042 9.29184 79.2986C11.0445 77.7929 11.5452 76.7891 12.6719 74.7816C12.6719 74.7816 25.5663 71.6447 35.8317 62.1088C42.9674 55.8352 51.6054 42.0333 49.6024 29.8624ZM12.4215 67.0023C12.5467 65.873 18.3054 30.7407 17.9298 23.9652C17.9298 23.8398 17.9298 23.8398 17.9298 23.7143C17.9298 23.5888 17.8046 21.9577 17.9298 21.2048C18.3054 18.9463 20.3084 14.9312 29.3219 15.3076C38.0851 17.5661 40.0881 26.9766 39.9629 34.7559C39.7126 51.4437 21.9358 66.124 12.4215 67.0023Z" fill="white"/>
</svg>
